<mxfile host="Electron" agent="Mozilla/5.0 (Windows NT 10.0; Win64; x64) AppleWebKit/537.36 (KHTML, like Gecko) draw.io/24.7.8 Chrome/128.0.6613.36 Electron/32.0.1 Safari/537.36" version="24.7.8">
  <diagram name="Page-1" id="9CguY9LWb4uk2jpVBCRa">
    <mxGraphModel dx="1850" dy="629" grid="0" gridSize="10" guides="1" tooltips="1" connect="1" arrows="1" fold="1" page="0" pageScale="1" pageWidth="850" pageHeight="1100" math="0" shadow="0">
      <root>
        <mxCell id="0" />
        <mxCell id="1" parent="0" />
        <mxCell id="jbWS3eqqZUePCtWVH1MQ-3" value="&lt;div&gt;local&lt;/div&gt;MLOPS cluster&lt;div&gt;(installed)&lt;/div&gt;" style="shape=cube;whiteSpace=wrap;html=1;boundedLbl=1;backgroundOutline=1;darkOpacity=0.05;darkOpacity2=0.1;" vertex="1" parent="1">
          <mxGeometry x="490" y="420" width="120" height="80" as="geometry" />
        </mxCell>
        <mxCell id="jbWS3eqqZUePCtWVH1MQ-5" value="&lt;div&gt;local&lt;/div&gt;GitHub runner&lt;div&gt;(installed)&lt;/div&gt;" style="shape=process;whiteSpace=wrap;html=1;backgroundOutline=1;" vertex="1" parent="1">
          <mxGeometry x="290" y="420" width="120" height="60" as="geometry" />
        </mxCell>
        <mxCell id="jbWS3eqqZUePCtWVH1MQ-19" style="edgeStyle=orthogonalEdgeStyle;rounded=0;orthogonalLoop=1;jettySize=auto;html=1;exitX=1;exitY=0.5;exitDx=0;exitDy=0;entryX=0;entryY=0.5;entryDx=0;entryDy=0;" edge="1" parent="1" source="jbWS3eqqZUePCtWVH1MQ-6" target="jbWS3eqqZUePCtWVH1MQ-5">
          <mxGeometry relative="1" as="geometry" />
        </mxCell>
        <mxCell id="jbWS3eqqZUePCtWVH1MQ-6" value="GitHub action&lt;div&gt;(yml)&lt;/div&gt;" style="shape=process;whiteSpace=wrap;html=1;backgroundOutline=1;" vertex="1" parent="1">
          <mxGeometry x="120" y="420" width="120" height="60" as="geometry" />
        </mxCell>
        <mxCell id="jbWS3eqqZUePCtWVH1MQ-9" style="edgeStyle=orthogonalEdgeStyle;rounded=0;orthogonalLoop=1;jettySize=auto;html=1;exitX=0.5;exitY=0;exitDx=0;exitDy=0;exitPerimeter=0;" edge="1" parent="1" source="jbWS3eqqZUePCtWVH1MQ-22" target="jbWS3eqqZUePCtWVH1MQ-7">
          <mxGeometry relative="1" as="geometry" />
        </mxCell>
        <mxCell id="jbWS3eqqZUePCtWVH1MQ-11" value="Production&lt;div&gt;branch&lt;/div&gt;" style="edgeLabel;html=1;align=center;verticalAlign=middle;resizable=0;points=[];" vertex="1" connectable="0" parent="jbWS3eqqZUePCtWVH1MQ-9">
          <mxGeometry x="0.164" y="-2" relative="1" as="geometry">
            <mxPoint as="offset" />
          </mxGeometry>
        </mxCell>
        <mxCell id="jbWS3eqqZUePCtWVH1MQ-10" style="edgeStyle=orthogonalEdgeStyle;rounded=0;orthogonalLoop=1;jettySize=auto;html=1;exitX=0.5;exitY=1;exitDx=0;exitDy=0;exitPerimeter=0;" edge="1" parent="1" source="jbWS3eqqZUePCtWVH1MQ-22" target="jbWS3eqqZUePCtWVH1MQ-6">
          <mxGeometry relative="1" as="geometry" />
        </mxCell>
        <mxCell id="jbWS3eqqZUePCtWVH1MQ-12" value="Development&lt;div&gt;branch&lt;/div&gt;" style="edgeLabel;html=1;align=center;verticalAlign=middle;resizable=0;points=[];" vertex="1" connectable="0" parent="jbWS3eqqZUePCtWVH1MQ-10">
          <mxGeometry x="0.0218" relative="1" as="geometry">
            <mxPoint as="offset" />
          </mxGeometry>
        </mxCell>
        <mxCell id="jbWS3eqqZUePCtWVH1MQ-8" value="Working repo" style="rounded=0;whiteSpace=wrap;html=1;" vertex="1" parent="1">
          <mxGeometry x="-210" y="350" width="120" height="60" as="geometry" />
        </mxCell>
        <mxCell id="jbWS3eqqZUePCtWVH1MQ-17" style="edgeStyle=orthogonalEdgeStyle;rounded=0;orthogonalLoop=1;jettySize=auto;html=1;exitX=1;exitY=0.5;exitDx=0;exitDy=0;entryX=0;entryY=0.75;entryDx=0;entryDy=0;endArrow=none;endFill=0;" edge="1" parent="1" source="jbWS3eqqZUePCtWVH1MQ-13" target="jbWS3eqqZUePCtWVH1MQ-8">
          <mxGeometry relative="1" as="geometry" />
        </mxCell>
        <mxCell id="jbWS3eqqZUePCtWVH1MQ-13" value="Config repo" style="rounded=0;whiteSpace=wrap;html=1;" vertex="1" parent="1">
          <mxGeometry x="-380" y="410" width="120" height="60" as="geometry" />
        </mxCell>
        <mxCell id="jbWS3eqqZUePCtWVH1MQ-15" style="edgeStyle=orthogonalEdgeStyle;rounded=0;orthogonalLoop=1;jettySize=auto;html=1;exitX=0;exitY=0;exitDx=120;exitDy=50;exitPerimeter=0;entryX=0;entryY=0.25;entryDx=0;entryDy=0;" edge="1" parent="1" source="jbWS3eqqZUePCtWVH1MQ-14" target="jbWS3eqqZUePCtWVH1MQ-8">
          <mxGeometry relative="1" as="geometry" />
        </mxCell>
        <mxCell id="jbWS3eqqZUePCtWVH1MQ-16" style="edgeStyle=orthogonalEdgeStyle;rounded=0;orthogonalLoop=1;jettySize=auto;html=1;exitX=0;exitY=0;exitDx=70;exitDy=80;exitPerimeter=0;" edge="1" parent="1" source="jbWS3eqqZUePCtWVH1MQ-14" target="jbWS3eqqZUePCtWVH1MQ-13">
          <mxGeometry relative="1" as="geometry" />
        </mxCell>
        <mxCell id="jbWS3eqqZUePCtWVH1MQ-14" value="Tool&lt;div&gt;(Python&amp;nbsp;&lt;/div&gt;&lt;div&gt;+ Typer framework)&lt;/div&gt;" style="shape=cube;whiteSpace=wrap;html=1;boundedLbl=1;backgroundOutline=1;darkOpacity=0.05;darkOpacity2=0.1;" vertex="1" parent="1">
          <mxGeometry x="-390" y="170" width="120" height="80" as="geometry" />
        </mxCell>
        <mxCell id="jbWS3eqqZUePCtWVH1MQ-20" style="edgeStyle=orthogonalEdgeStyle;rounded=0;orthogonalLoop=1;jettySize=auto;html=1;exitX=1;exitY=0.5;exitDx=0;exitDy=0;entryX=0;entryY=0;entryDx=0;entryDy=30;entryPerimeter=0;" edge="1" parent="1" source="jbWS3eqqZUePCtWVH1MQ-5" target="jbWS3eqqZUePCtWVH1MQ-3">
          <mxGeometry relative="1" as="geometry" />
        </mxCell>
        <mxCell id="jbWS3eqqZUePCtWVH1MQ-22" value="&quot;Python files&quot;&lt;div&gt;(Jupyter Notebook)&lt;/div&gt;" style="shape=note;whiteSpace=wrap;html=1;backgroundOutline=1;darkOpacity=0.05;" vertex="1" parent="1">
          <mxGeometry x="-60" y="330" width="80" height="100" as="geometry" />
        </mxCell>
        <mxCell id="jbWS3eqqZUePCtWVH1MQ-24" style="edgeStyle=orthogonalEdgeStyle;rounded=0;orthogonalLoop=1;jettySize=auto;html=1;exitX=1;exitY=0.5;exitDx=0;exitDy=0;entryX=0;entryY=0.5;entryDx=0;entryDy=0;entryPerimeter=0;endArrow=none;endFill=0;" edge="1" parent="1" source="jbWS3eqqZUePCtWVH1MQ-8" target="jbWS3eqqZUePCtWVH1MQ-22">
          <mxGeometry relative="1" as="geometry" />
        </mxCell>
        <mxCell id="jbWS3eqqZUePCtWVH1MQ-25" value="" style="swimlane;startSize=0;" vertex="1" parent="1">
          <mxGeometry x="-410" y="140" width="857" height="390" as="geometry" />
        </mxCell>
        <mxCell id="jbWS3eqqZUePCtWVH1MQ-2" value="&lt;div&gt;remote (CSC)&lt;/div&gt;MLOPS cluster" style="shape=cube;whiteSpace=wrap;html=1;boundedLbl=1;backgroundOutline=1;darkOpacity=0.05;darkOpacity2=0.1;" vertex="1" parent="jbWS3eqqZUePCtWVH1MQ-25">
          <mxGeometry x="900" y="135" width="120" height="80" as="geometry" />
        </mxCell>
        <mxCell id="jbWS3eqqZUePCtWVH1MQ-4" value="&lt;div&gt;GitHub internal&lt;/div&gt;GitHub runner" style="shape=process;whiteSpace=wrap;html=1;backgroundOutline=1;" vertex="1" parent="jbWS3eqqZUePCtWVH1MQ-25">
          <mxGeometry x="700" y="135" width="120" height="60" as="geometry" />
        </mxCell>
        <mxCell id="jbWS3eqqZUePCtWVH1MQ-7" value="GitHub action&lt;div&gt;(yml)&lt;/div&gt;" style="shape=process;whiteSpace=wrap;html=1;backgroundOutline=1;" vertex="1" parent="jbWS3eqqZUePCtWVH1MQ-25">
          <mxGeometry x="530" y="135" width="120" height="60" as="geometry" />
        </mxCell>
        <mxCell id="jbWS3eqqZUePCtWVH1MQ-21" style="edgeStyle=orthogonalEdgeStyle;rounded=0;orthogonalLoop=1;jettySize=auto;html=1;exitX=1;exitY=0.5;exitDx=0;exitDy=0;entryX=0;entryY=0;entryDx=0;entryDy=30;entryPerimeter=0;" edge="1" parent="jbWS3eqqZUePCtWVH1MQ-25" source="jbWS3eqqZUePCtWVH1MQ-4" target="jbWS3eqqZUePCtWVH1MQ-2">
          <mxGeometry relative="1" as="geometry" />
        </mxCell>
        <mxCell id="jbWS3eqqZUePCtWVH1MQ-18" style="edgeStyle=orthogonalEdgeStyle;rounded=0;orthogonalLoop=1;jettySize=auto;html=1;exitX=1;exitY=0.5;exitDx=0;exitDy=0;entryX=0;entryY=0.5;entryDx=0;entryDy=0;" edge="1" parent="jbWS3eqqZUePCtWVH1MQ-25" source="jbWS3eqqZUePCtWVH1MQ-7" target="jbWS3eqqZUePCtWVH1MQ-4">
          <mxGeometry relative="1" as="geometry" />
        </mxCell>
        <mxCell id="jbWS3eqqZUePCtWVH1MQ-26" value="Project scope" style="text;html=1;align=center;verticalAlign=middle;resizable=0;points=[];autosize=1;strokeColor=none;fillColor=none;" vertex="1" parent="1">
          <mxGeometry x="-50" y="158" width="100" height="30" as="geometry" />
        </mxCell>
      </root>
    </mxGraphModel>
  </diagram>
</mxfile>
